<svg width="15" height="15" viewBox="0 0 15 15" fill="none" xmlns="http://www.w3.org/2000/svg">
<path d="M7.44344 2.35108C10.3315 2.35108 12.6807 4.70028 12.6807 7.58831C12.6807 10.4763 10.3315 12.8255 7.44344 12.8255C4.55541 12.8255 2.2062 10.4763 2.2062 7.58831C2.2062 4.70028 4.55541 2.35108 7.44344 2.35108ZM7.44344 0.291878C3.41341 0.291878 0.147003 3.55828 0.147003 7.58831C0.147003 11.6183 3.41341 14.8847 7.44344 14.8847C11.4735 14.8847 14.7399 11.6183 14.7399 7.58831C14.7399 3.55828 11.4726 0.291878 7.44344 0.291878Z" fill="#3C3C4C"/>
<path d="M14.7309 7.58914V14.5235L12.8982 12.4523" fill="#3C3C4C"/>
<path d="M1.97969 2.72491L0.147003 0.653694V7.58805" fill="#3C3C4C"/>
</svg>
